<svg width="400" height="300" xmlns="http://www.w3.org/2000/svg">
  <defs>
    <linearGradient id="bgGradient" x1="0%" y1="0%" x2="100%" y2="100%">
      <stop offset="0%" stop-color="#1e2a38" stop-opacity="0.9"/>
      <stop offset="100%" stop-color="#2c3e50" stop-opacity="0.8"/>
    </linearGradient>
  </defs>
  <rect width="100%" height="100%" fill="url(#bgGradient)"/>
  <path d="M50,200 C100,180 150,190 200,170 S300,160 350,180" stroke="#c49a36" stroke-width="2" fill="none" opacity="0.3"/>
  <path d="M80,120 C120,100 180,110 220,90 S280,80 320,100" stroke="#c49a36" stroke-width="1.5" fill="none" opacity="0.2"/>
  <path d="M70,250 L330,250 C340,250 350,240 350,230 L350,210 C350,200 340,190 330,190 L290,190 L280,170 L120,170 L110,190 L70,190 C60,190 50,200 50,210 L50,230 C50,240 60,250 70,250 Z" fill="#c49a36" opacity="0.1"/>
  <circle cx="100" cy="100" r="15" fill="#c49a36" opacity="0.1"/>
  <circle cx="140" cy="100" r="15" fill="#c49a36" opacity="0.1"/>
  <circle cx="180" cy="100" r="15" fill="#c49a36" opacity="0.1"/>
</svg>