<svg width="400" height="300" xmlns="http://www.w3.org/2000/svg">
  <defs>
    <linearGradient id="bgGradient" x1="0%" y1="0%" x2="100%" y2="100%">
      <stop offset="0%" stop-color="#1a1a1a" stop-opacity="0.9"/>
      <stop offset="100%" stop-color="#333333" stop-opacity="0.8"/>
    </linearGradient>
  </defs>
  <rect width="100%" height="100%" fill="url(#bgGradient)"/>
  <path d="M50,250 C100,200 150,240 200,180 S300,150 350,200" stroke="#c49a36" stroke-width="2" fill="none" opacity="0.3"/>
  <path d="M80,150 C120,100 180,120 220,80 S280,50 320,100" stroke="#c49a36" stroke-width="1.5" fill="none" opacity="0.2"/>
  <path d="M300,50 C280,80 260,70 240,90 S220,120 200,100 S180,80 160,100 S140,130 120,110 S100,80 80,100" stroke="#c49a36" stroke-width="1" fill="none" opacity="0.15"/>
  <path d="M70,270 L330,270 C340,270 350,260 350,250 L350,230 C350,220 340,210 330,210 L300,210 L290,190 L240,190 L230,210 L170,210 L160,190 L110,190 L100,210 L70,210 C60,210 50,220 50,230 L50,250 C50,260 60,270 70,270 Z" fill="#c49a36" opacity="0.1"/>
</svg>