<svg width="400" height="300" xmlns="http://www.w3.org/2000/svg">
  <defs>
    <linearGradient id="bgGradient" x1="0%" y1="0%" x2="100%" y2="100%">
      <stop offset="0%" stop-color="#2d1a1a" stop-opacity="0.9"/>
      <stop offset="100%" stop-color="#3d2929" stop-opacity="0.8"/>
    </linearGradient>
  </defs>
  <rect width="100%" height="100%" fill="url(#bgGradient)"/>
  <path d="M50,220 C100,200 150,210 200,190 S300,180 350,200" stroke="#c49a36" stroke-width="2" fill="none" opacity="0.3"/>
  <path d="M80,140 C120,120 180,130 220,110 S280,100 320,120" stroke="#c49a36" stroke-width="1.5" fill="none" opacity="0.2"/>
  <path d="M70,260 L330,260 C340,260 350,250 350,240 L350,220 C350,210 340,200 330,200 L290,200 L270,180 L250,170 L150,170 L130,180 L110,200 L70,200 C60,200 50,210 50,220 L50,240 C50,250 60,260 70,260 Z" fill="#c49a36" opacity="0.15"/>
  <path d="M150,170 L250,170 C260,160 270,150 270,140 L270,130 C270,120 260,110 250,110 L150,110 C140,110 130,120 130,130 L130,140 C130,150 140,160 150,170 Z" fill="#c49a36" opacity="0.1"/>
</svg>